# xmcd CD database file
#
# Track frame offsets:
#	150
#	11817
#	23364
#	32791
#	45490
#	59884
#	75781
#	94265
#	105232
#	116206
#	133450
#	141163
#	151785
#	162815
#	174070
#	183990
#	195362
#	208301
#
# Disc length: 2893 seconds
#
# Revision: 1
# Processed by: cddbd v1.5.2PL0 Copyright (c) Steve Scherf et al.
# Submitted via: CDex 1.51
#
DISCID=e50b4b12
DTITLE=Various Artist - Countr's Greatest Songs I
DYEAR=1999
DGENRE=Country
TTITLE0=Kenny Rogers/ Poem for a little lady (Davis)
TTITLE1=Waylon Jennings - Sally was a goog old girl (Howard/David)
TTITLE2=Bob Luman - Let's think about living (Bryant)
TTITLE3=Faron Young - It's four in the morning (Chesnut)
TTITLE4=Freddy Fender - Wasted days and wasted nights (Huerta)
TTITLE5=Anne Murray - There goes my everything (Frazier)
TTITLE6=Skeeter Davis - Just when I needed you most (Vanwarmer)
TTITLE7=Patsy Cline - I cried all the way to the altar (Fornoy/Stevenson)
TTITLE8=Willie Nelson - I feel sorry for him (Nelson)
TTITLE9=Merle Haggard - Today I started loving you again (Haggard/Owens)
TTITLE10=Roger Miller - Do-Wacka-Do (Miller)
TTITLE11=Jim Nesbitt - Runnig Bare (Trad.)
TTITLE12=Dolly Parto - Honky Tonk Angels (Miller)
TTITLE13=George Jones - Tender Years (Jones/Edwards)
TTITLE14=Johnny Cash - Rock Island Line (Cash)
TTITLE15=Charlie Louvin - I don't love you anymore (Wool)
TTITLE16=Lynn Anderson - Top of the world (Bettes/Carpenter)
TTITLE17=Sandy Posey. Born a woman (Greenberg/Morris)
EXTD=Edición en exclusiva para CÍRCULO DE LECTORES, España. YEAR: 1999
EXTT0=
EXTT1=
EXTT2=
EXTT3=
EXTT4=
EXTT5=
EXTT6=
EXTT7=
EXTT8=
EXTT9=
EXTT10=
EXTT11=
EXTT12=
EXTT13=
EXTT14=
EXTT15=
EXTT16=
EXTT17=
PLAYORDER=
